<?xml version="1.0" encoding="utf-8"?>
<!-- Generator: Adobe Illustrator 16.0.0, SVG Export Plug-In . SVG Version: 6.00 Build 0)  -->
<!DOCTYPE svg PUBLIC "-//W3C//DTD SVG 1.1//EN" "http://www.w3.org/Graphics/SVG/1.1/DTD/svg11.dtd">
<svg version="1.1" id="Layer_1" xmlns="http://www.w3.org/2000/svg" xmlns:xlink="http://www.w3.org/1999/xlink" x="0px" y="0px"
	 width="639.299px" height="152.5px" viewBox="-44.018 215.64 639.299 152.5" enable-background="new -44.018 215.64 639.299 152.5"
	 xml:space="preserve">
<image overflow="visible" width="370" height="370" xlink:href="image.png"  transform="matrix(0.0285 0.0688 -0.0688 0.0285 120.1211 259.7607)">
</image>
<g>
	<path d="M150.264,298.869H87.451v-72.326h15.187v22.049h32.585v-22.049h15.04V298.869z M99.248,315.407h87.583v52.614h-15.187
		v-38.92H99.248V315.407z M135.224,261.954h-32.585v23.218h32.585V261.954z M205.703,269.47H186.83v38.417h-15.187v-90.865h15.187
		v38.25h18.873V269.47z"/>
	<path d="M338.844,290.517v13.697H218.381v-13.697h28.604v-20.043c-10.025-4.844-15.776-12.527-15.776-22.383
		c0-17.706,18.283-28.396,47.477-28.396c29.047,0,47.479,10.69,47.479,28.396c0,9.855-5.898,17.539-16.071,22.549v19.877H338.844z
		 M324.248,340.96c0,17.373-17.104,27.061-45.856,27.061c-28.604,0-45.856-9.688-45.856-27.061
		c0-17.205,17.252-27.059,45.856-27.059C307.143,313.902,324.248,323.755,324.248,340.96z M246.838,248.09
		c0,9.688,11.944,15.2,31.848,15.2c19.758,0,31.702-5.513,31.702-15.2c0-9.688-11.943-15.033-31.702-15.033
		C258.782,233.057,246.838,238.402,246.838,248.09z M308.914,340.96c0-9.021-11.058-13.862-30.522-13.862
		c-19.463,0-30.374,4.842-30.374,13.862c0,9.187,10.911,13.864,30.374,13.864C297.856,354.825,308.914,350.147,308.914,340.96z
		 M262.172,290.517h32.732V275.15c-4.865,0.835-10.32,1.336-16.219,1.336c-5.896,0-11.648-0.5-16.513-1.336V290.517z"/>
	<path d="M424.36,303.546h-63.402v-75.668h15.041v23.552h33.175v-23.552h15.187V303.546z M409.173,264.961h-33.175v24.721h33.175
		V264.961z M467.121,351.15v14.031h-90.679v-47.772h15.185v33.741H467.121z M463.875,328.433h-15.188V217.189h15.188V328.433z"/>
</g>
<polygon points="20.432,231.004 40.233,271.124 84.508,277.559 52.471,308.789 60.034,352.884 20.432,332.065 -19.169,352.884 
	-11.604,308.789 -43.644,277.559 0.632,271.124 "/>
<polygon points="531.204,231.004 551.004,271.124 595.281,277.559 563.243,308.789 570.807,352.884 531.204,332.065 
	491.604,352.884 499.167,308.789 467.128,277.559 511.403,271.124 "/>
</svg>
